<svg width="226" height="76" viewBox="0 0 226 76" fill="none" xmlns="http://www.w3.org/2000/svg">
<path d="M160.488 57.864V0H172.119V57.864H160.488Z" fill="#F7A600"/>
<path d="M24.9345 75.0522H0V17.1882H23.9318C35.5629 17.1882 42.34 23.5271 42.34 33.4426C42.34 39.861 37.9875 44.0088 34.9748 45.3898C38.5708 47.0144 43.1739 50.6707 43.1739 58.3951C43.1739 69.2004 35.5629 75.0522 24.9345 75.0522ZM23.0112 27.2675H11.6309V40.5958H23.0112C27.9472 40.5958 30.709 37.9134 30.709 33.9295C30.709 29.9499 27.9472 27.2675 23.0112 27.2675ZM23.7632 50.7548H11.6309V64.9773H23.7632C29.0363 64.9773 31.5429 61.7284 31.5429 57.8241C31.5429 53.9243 29.0316 50.7548 23.7632 50.7548Z" fill="white"/>
<path d="M78.6491 51.3214V75.0522H67.1002V51.3214L49.1935 17.1882H61.8271L72.9567 40.5117L83.9178 17.1882H96.5514L78.6491 51.3214Z" fill="white"/>
<path d="M129.526 75.0522H104.592V17.1882H128.523C140.154 17.1882 146.932 23.5271 146.932 33.4426C146.932 39.861 142.579 44.0088 139.566 45.3898C143.162 47.0144 147.766 50.6707 147.766 58.3951C147.766 69.2004 140.154 75.0522 129.526 75.0522ZM127.603 27.2675H116.222V40.5958H127.603C132.539 40.5958 135.301 37.9134 135.301 33.9295C135.301 29.9499 132.539 27.2675 127.603 27.2675ZM128.355 50.7548H116.222V64.9773H128.355C133.628 64.9773 136.134 61.7284 136.134 57.8241C136.134 53.9243 133.628 50.7548 128.355 50.7548Z" fill="white"/>
<path d="M209.605 27.2675V75.0566H197.974V27.2675H182.41V17.1882H225.169V27.2675H209.605Z" fill="white"/>
</svg>
